<mxfile host="app.diagrams.net" agent="Mozilla/5.0 (Windows NT 10.0; Win64; x64) AppleWebKit/537.36 (KHTML, like Gecko) Chrome/131.0.0.0 Safari/537.36" version="26.0.2">
  <diagram name="Page-1" id="FletzxpNU2K9Tte4MwrH">
    <mxGraphModel dx="2787" dy="1725" grid="1" gridSize="10" guides="1" tooltips="1" connect="1" arrows="1" fold="1" page="1" pageScale="1" pageWidth="1100" pageHeight="850" math="0" shadow="1">
      <root>
        <mxCell id="0" />
        <mxCell id="1" parent="0" />
        <mxCell id="Zp9bopaUCP8zhnC8v-5o-43" value="" style="rounded=1;whiteSpace=wrap;html=1;fillColor=#dae8fc;strokeColor=#6c8ebf;" parent="1" vertex="1">
          <mxGeometry x="-375" y="-60" width="1760" height="633.75" as="geometry" />
        </mxCell>
        <mxCell id="Zp9bopaUCP8zhnC8v-5o-44" value="" style="rounded=1;whiteSpace=wrap;html=1;fillColor=#d5e8d4;strokeColor=#82b366;" parent="1" vertex="1">
          <mxGeometry x="-210" width="1430" height="180" as="geometry" />
        </mxCell>
        <mxCell id="Zp9bopaUCP8zhnC8v-5o-45" value="" style="rounded=1;whiteSpace=wrap;html=1;fillColor=#d5e8d4;strokeColor=#82b366;labelBackgroundColor=none;" parent="1" vertex="1">
          <mxGeometry x="-210" y="335" width="1430" height="180" as="geometry" />
        </mxCell>
        <mxCell id="Zp9bopaUCP8zhnC8v-5o-13" style="edgeStyle=orthogonalEdgeStyle;rounded=0;orthogonalLoop=1;jettySize=auto;html=1;entryX=0;entryY=0.5;entryDx=0;entryDy=0;flowAnimation=1;" parent="1" source="Zp9bopaUCP8zhnC8v-5o-1" target="Zp9bopaUCP8zhnC8v-5o-3" edge="1">
          <mxGeometry relative="1" as="geometry" />
        </mxCell>
        <mxCell id="Zp9bopaUCP8zhnC8v-5o-1" value="" style="shape=image;verticalLabelPosition=bottom;labelBackgroundColor=default;verticalAlign=top;aspect=fixed;imageAspect=0;image=https://logolook.net/wp-content/uploads/2022/12/GitHub-Logo.png;" parent="1" vertex="1">
          <mxGeometry x="-320" y="242.5" width="120" height="67.5" as="geometry" />
        </mxCell>
        <mxCell id="Zp9bopaUCP8zhnC8v-5o-22" style="edgeStyle=orthogonalEdgeStyle;rounded=0;orthogonalLoop=1;jettySize=auto;html=1;entryX=0;entryY=0.5;entryDx=0;entryDy=0;flowAnimation=1;dashed=1;" parent="1" source="Zp9bopaUCP8zhnC8v-5o-3" target="Zp9bopaUCP8zhnC8v-5o-5" edge="1">
          <mxGeometry relative="1" as="geometry" />
        </mxCell>
        <mxCell id="Zp9bopaUCP8zhnC8v-5o-3" value="" style="shape=image;verticalLabelPosition=bottom;labelBackgroundColor=default;verticalAlign=top;aspect=fixed;imageAspect=0;image=https://upload.wikimedia.org/wikipedia/commons/thumb/e/e9/Jenkins_logo.svg/1483px-Jenkins_logo.svg.png;" parent="1" vertex="1">
          <mxGeometry x="-100" y="32.329999999999984" width="60" height="82.85" as="geometry" />
        </mxCell>
        <mxCell id="Zp9bopaUCP8zhnC8v-5o-20" style="edgeStyle=orthogonalEdgeStyle;rounded=0;orthogonalLoop=1;jettySize=auto;html=1;entryX=0;entryY=0.5;entryDx=0;entryDy=0;flowAnimation=1;dashed=1;" parent="1" source="Zp9bopaUCP8zhnC8v-5o-4" target="Zp9bopaUCP8zhnC8v-5o-19" edge="1">
          <mxGeometry relative="1" as="geometry" />
        </mxCell>
        <mxCell id="Zp9bopaUCP8zhnC8v-5o-4" value="" style="shape=image;verticalLabelPosition=bottom;labelBackgroundColor=default;verticalAlign=top;aspect=fixed;imageAspect=0;image=https://static-00.iconduck.com/assets.00/trivy-icon-1248x2048-jvb9x51r.png;" parent="1" vertex="1">
          <mxGeometry x="760" y="31" width="52.08" height="85.5" as="geometry" />
        </mxCell>
        <mxCell id="Zp9bopaUCP8zhnC8v-5o-21" style="edgeStyle=orthogonalEdgeStyle;rounded=0;orthogonalLoop=1;jettySize=auto;html=1;entryX=0;entryY=0.5;entryDx=0;entryDy=0;flowAnimation=1;dashed=1;" parent="1" source="Zp9bopaUCP8zhnC8v-5o-5" target="Zp9bopaUCP8zhnC8v-5o-7" edge="1">
          <mxGeometry relative="1" as="geometry" />
        </mxCell>
        <mxCell id="Zp9bopaUCP8zhnC8v-5o-5" value="" style="shape=image;verticalLabelPosition=bottom;labelBackgroundColor=default;verticalAlign=top;aspect=fixed;imageAspect=0;image=https://static-00.iconduck.com/assets.00/sonarqube-icon-2048x499-b6mw67zs.png;" parent="1" vertex="1">
          <mxGeometry y="52.76" width="172.6" height="42" as="geometry" />
        </mxCell>
        <mxCell id="yrw4BJJYyJAJMMiqZRWE-4" value="" style="edgeStyle=orthogonalEdgeStyle;rounded=0;orthogonalLoop=1;jettySize=auto;html=1;flowAnimation=1;dashed=1;" edge="1" parent="1" source="Zp9bopaUCP8zhnC8v-5o-7" target="yrw4BJJYyJAJMMiqZRWE-3">
          <mxGeometry relative="1" as="geometry" />
        </mxCell>
        <mxCell id="Zp9bopaUCP8zhnC8v-5o-7" value="" style="shape=image;verticalLabelPosition=bottom;labelBackgroundColor=default;verticalAlign=top;aspect=fixed;imageAspect=0;image=https://blogger.googleusercontent.com/img/b/R29vZ2xl/AVvXsEglo6MalGbIc81QBbz1jqOU8B0085n2UVJCaH9SfhIfxA0MYt1dEFk2-zwiD-qE16LkgxrJgrbgfuRdoyn1PJho_kqKA_0VlMfW9-waWAuhLT9El1w9XQpbyBj_-3MCTMml9gdUmU9k4Ek/s1600/DependencyCheck.png;" parent="1" vertex="1">
          <mxGeometry x="230" y="48.75" width="158.02" height="50" as="geometry" />
        </mxCell>
        <mxCell id="Zp9bopaUCP8zhnC8v-5o-12" value="" style="shape=image;verticalLabelPosition=bottom;labelBackgroundColor=default;verticalAlign=top;aspect=fixed;imageAspect=0;image=https://static-00.iconduck.com/assets.00/terraform-icon-1803x2048-hodrzd3t.png;" parent="1" vertex="1">
          <mxGeometry x="-340" y="60" width="52.8" height="60" as="geometry" />
        </mxCell>
        <mxCell id="Zp9bopaUCP8zhnC8v-5o-18" style="edgeStyle=orthogonalEdgeStyle;rounded=0;orthogonalLoop=1;jettySize=auto;html=1;entryX=0;entryY=0.5;entryDx=0;entryDy=0;flowAnimation=1;dashed=1;" parent="1" source="Zp9bopaUCP8zhnC8v-5o-15" target="Zp9bopaUCP8zhnC8v-5o-4" edge="1">
          <mxGeometry relative="1" as="geometry">
            <mxPoint x="680" y="73.75" as="targetPoint" />
          </mxGeometry>
        </mxCell>
        <mxCell id="Zp9bopaUCP8zhnC8v-5o-15" value="" style="shape=image;verticalLabelPosition=bottom;labelBackgroundColor=default;verticalAlign=top;aspect=fixed;imageAspect=0;image=https://logos-world.net/wp-content/uploads/2021/02/Docker-Logo.png;" parent="1" vertex="1">
          <mxGeometry x="582.6" y="38.75" width="124.44" height="70" as="geometry" />
        </mxCell>
        <mxCell id="Zp9bopaUCP8zhnC8v-5o-17" value="Docker Image Build" style="text;html=1;align=center;verticalAlign=middle;whiteSpace=wrap;rounded=0;fontSize=20;" parent="1" vertex="1">
          <mxGeometry x="614.82" y="115.18" width="60" height="30" as="geometry" />
        </mxCell>
        <mxCell id="Zp9bopaUCP8zhnC8v-5o-34" style="edgeStyle=orthogonalEdgeStyle;rounded=0;orthogonalLoop=1;jettySize=auto;html=1;entryX=0.5;entryY=0;entryDx=0;entryDy=0;flowAnimation=1;exitX=0.5;exitY=1;exitDx=0;exitDy=0;" parent="1" source="Zp9bopaUCP8zhnC8v-5o-36" target="Zp9bopaUCP8zhnC8v-5o-25" edge="1">
          <mxGeometry relative="1" as="geometry">
            <mxPoint x="-37.79500000000053" y="390" as="targetPoint" />
            <mxPoint x="927.4285714285716" y="93.75" as="sourcePoint" />
            <Array as="points">
              <mxPoint x="1130" y="200" />
              <mxPoint x="-38" y="200" />
            </Array>
          </mxGeometry>
        </mxCell>
        <mxCell id="Zp9bopaUCP8zhnC8v-5o-37" style="edgeStyle=orthogonalEdgeStyle;rounded=0;orthogonalLoop=1;jettySize=auto;html=1;entryX=0;entryY=0.5;entryDx=0;entryDy=0;flowAnimation=1;dashed=1;" parent="1" source="Zp9bopaUCP8zhnC8v-5o-19" target="Zp9bopaUCP8zhnC8v-5o-36" edge="1">
          <mxGeometry relative="1" as="geometry" />
        </mxCell>
        <mxCell id="Zp9bopaUCP8zhnC8v-5o-19" value="" style="shape=image;verticalLabelPosition=bottom;labelBackgroundColor=default;verticalAlign=top;aspect=fixed;imageAspect=0;image=https://blogger.googleusercontent.com/img/b/R29vZ2xl/AVvXsEjKwLLWrV1jVNbN93unAcc_C15jagucKyYDmo0URPbtWhhQJXaucAuw5EYwy-MJcnFN4uGCmMms2WnuE75PZZAqxJuSAoV7mkYAPzcZu1LwwOvhcKpAYbuz1bymOVzoHNH4pV7EeMnWY80Q/s728-rw-e365/docker-hub-data-breach.jpg;" parent="1" vertex="1">
          <mxGeometry x="870" y="43.75" width="114.95" height="60" as="geometry" />
        </mxCell>
        <mxCell id="Zp9bopaUCP8zhnC8v-5o-24" value="" style="shape=image;verticalLabelPosition=bottom;labelBackgroundColor=default;verticalAlign=top;aspect=fixed;imageAspect=0;image=https://upload.wikimedia.org/wikipedia/commons/0/05/Ansible_Logo.png;" parent="1" vertex="1">
          <mxGeometry x="-353.6" y="137.5" width="80" height="80" as="geometry" />
        </mxCell>
        <mxCell id="Zp9bopaUCP8zhnC8v-5o-27" style="edgeStyle=orthogonalEdgeStyle;rounded=0;orthogonalLoop=1;jettySize=auto;html=1;entryX=0;entryY=0.5;entryDx=0;entryDy=0;flowAnimation=1;dashed=1;" parent="1" source="Zp9bopaUCP8zhnC8v-5o-25" target="Zp9bopaUCP8zhnC8v-5o-28" edge="1">
          <mxGeometry relative="1" as="geometry">
            <mxPoint x="160" y="445" as="targetPoint" />
          </mxGeometry>
        </mxCell>
        <mxCell id="Zp9bopaUCP8zhnC8v-5o-25" value="" style="shape=image;verticalLabelPosition=bottom;labelBackgroundColor=default;verticalAlign=top;aspect=fixed;imageAspect=0;image=https://www.opsmx.com/wp-content/uploads/2022/07/Argo-1-e1630327305635-1.png;" parent="1" vertex="1">
          <mxGeometry x="-105.59000000000002" y="400" width="135.59" height="90" as="geometry" />
        </mxCell>
        <mxCell id="Zp9bopaUCP8zhnC8v-5o-30" style="edgeStyle=orthogonalEdgeStyle;rounded=0;orthogonalLoop=1;jettySize=auto;html=1;flowAnimation=1;dashed=1;" parent="1" source="Zp9bopaUCP8zhnC8v-5o-28" target="Zp9bopaUCP8zhnC8v-5o-29" edge="1">
          <mxGeometry relative="1" as="geometry" />
        </mxCell>
        <mxCell id="Zp9bopaUCP8zhnC8v-5o-28" value="" style="shape=image;verticalLabelPosition=bottom;labelBackgroundColor=default;verticalAlign=top;aspect=fixed;imageAspect=0;image=https://juststickers.in/wp-content/uploads/2018/11/kubernetes-wordmark.png;" parent="1" vertex="1">
          <mxGeometry x="150" y="390" width="110" height="110" as="geometry" />
        </mxCell>
        <mxCell id="Zp9bopaUCP8zhnC8v-5o-32" style="edgeStyle=orthogonalEdgeStyle;rounded=0;orthogonalLoop=1;jettySize=auto;html=1;entryX=0;entryY=0.5;entryDx=0;entryDy=0;flowAnimation=1;dashed=1;" parent="1" source="Zp9bopaUCP8zhnC8v-5o-29" target="Zp9bopaUCP8zhnC8v-5o-31" edge="1">
          <mxGeometry relative="1" as="geometry" />
        </mxCell>
        <mxCell id="Zp9bopaUCP8zhnC8v-5o-29" value="" style="shape=image;verticalLabelPosition=bottom;labelBackgroundColor=default;verticalAlign=top;aspect=fixed;imageAspect=0;image=https://i.pinimg.com/originals/58/87/dd/5887ddf7f68aa57b38e35196f42150c7.png;" parent="1" vertex="1">
          <mxGeometry x="360" y="405" width="93.02" height="80" as="geometry" />
        </mxCell>
        <mxCell id="Zp9bopaUCP8zhnC8v-5o-47" style="edgeStyle=orthogonalEdgeStyle;rounded=0;orthogonalLoop=1;jettySize=auto;html=1;flowAnimation=1;dashed=1;" parent="1" source="Zp9bopaUCP8zhnC8v-5o-31" target="Zp9bopaUCP8zhnC8v-5o-46" edge="1">
          <mxGeometry relative="1" as="geometry" />
        </mxCell>
        <mxCell id="Zp9bopaUCP8zhnC8v-5o-31" value="" style="shape=image;verticalLabelPosition=bottom;labelBackgroundColor=default;verticalAlign=top;aspect=fixed;imageAspect=0;image=https://upload.wikimedia.org/wikipedia/commons/thumb/a/a1/Grafana_logo.svg/800px-Grafana_logo.svg.png;" parent="1" vertex="1">
          <mxGeometry x="582.5999999999999" y="400" width="88.02" height="90" as="geometry" />
        </mxCell>
        <mxCell id="Zp9bopaUCP8zhnC8v-5o-35" value="" style="shape=image;verticalLabelPosition=bottom;labelBackgroundColor=default;verticalAlign=top;aspect=fixed;imageAspect=0;image=https://static-00.iconduck.com/assets.00/aws-icon-2048x2048-ptyrjxdo.png;" parent="1" vertex="1">
          <mxGeometry x="-350" y="-36.25" width="85" height="85" as="geometry" />
        </mxCell>
        <mxCell id="Zp9bopaUCP8zhnC8v-5o-36" value="" style="shape=image;verticalLabelPosition=bottom;labelBackgroundColor=default;verticalAlign=top;aspect=fixed;imageAspect=0;image=https://logolook.net/wp-content/uploads/2022/12/GitHub-Logo.png;" parent="1" vertex="1">
          <mxGeometry x="1070" y="40" width="120" height="67.5" as="geometry" />
        </mxCell>
        <mxCell id="Zp9bopaUCP8zhnC8v-5o-46" value="" style="sketch=0;outlineConnect=0;fontColor=#232F3E;gradientColor=none;fillColor=#232F3D;strokeColor=none;dashed=0;verticalLabelPosition=bottom;verticalAlign=top;align=center;html=1;fontSize=12;fontStyle=0;aspect=fixed;pointerEvents=1;shape=mxgraph.aws4.user;" parent="1" vertex="1">
          <mxGeometry x="792" y="405" width="78" height="78" as="geometry" />
        </mxCell>
        <mxCell id="Zp9bopaUCP8zhnC8v-5o-48" value="DevSecOps CI/CD" style="text;html=1;align=center;verticalAlign=middle;whiteSpace=wrap;rounded=0;fontSize=42;" parent="1" vertex="1">
          <mxGeometry x="1021.3999999999999" y="230" width="217.2" height="80" as="geometry" />
        </mxCell>
        <mxCell id="Zp9bopaUCP8zhnC8v-5o-49" value="CI" style="text;html=1;align=center;verticalAlign=middle;whiteSpace=wrap;rounded=0;fontSize=50;" parent="1" vertex="1">
          <mxGeometry x="-210" y="74.99999999999999" width="60" height="30" as="geometry" />
        </mxCell>
        <mxCell id="Zp9bopaUCP8zhnC8v-5o-50" value="CD" style="text;html=1;align=center;verticalAlign=middle;whiteSpace=wrap;rounded=0;fontSize=50;" parent="1" vertex="1">
          <mxGeometry x="-199.99999999999997" y="410" width="60" height="30" as="geometry" />
        </mxCell>
        <mxCell id="Zp9bopaUCP8zhnC8v-5o-56" value="" style="shape=image;verticalLabelPosition=bottom;labelBackgroundColor=default;verticalAlign=top;aspect=fixed;imageAspect=0;image=https://seeklogo.com/images/N/netflix-logo-9F2C3C3C63-seeklogo.com.png;" parent="1" vertex="1">
          <mxGeometry x="1270" y="213.44" width="66.36" height="113.12" as="geometry" />
        </mxCell>
        <mxCell id="Ye_nrfRPRzjRZ5T-cUN8-1" value="Docker tag Update on Manifests&amp;nbsp;" style="text;html=1;align=center;verticalAlign=middle;whiteSpace=wrap;rounded=0;strokeWidth=10;fontSize=20;" parent="1" vertex="1">
          <mxGeometry x="1000" y="120" width="60" height="30" as="geometry" />
        </mxCell>
        <mxCell id="Ye_nrfRPRzjRZ5T-cUN8-2" value="Static Code Analysis&amp;nbsp;" style="text;html=1;align=center;verticalAlign=middle;whiteSpace=wrap;rounded=0;fontSize=20;" parent="1" vertex="1">
          <mxGeometry x="30" y="108.75" width="60" height="30" as="geometry" />
        </mxCell>
        <mxCell id="Ye_nrfRPRzjRZ5T-cUN8-3" value="OWASP" style="text;html=1;align=center;verticalAlign=middle;whiteSpace=wrap;rounded=0;fontSize=20;" parent="1" vertex="1">
          <mxGeometry x="270" y="103.75" width="60" height="30" as="geometry" />
        </mxCell>
        <mxCell id="Ye_nrfRPRzjRZ5T-cUN8-4" value="Sync" style="text;html=1;align=center;verticalAlign=middle;whiteSpace=wrap;rounded=0;fontSize=20;" parent="1" vertex="1">
          <mxGeometry x="-40" y="203.44" width="60" height="30" as="geometry" />
        </mxCell>
        <mxCell id="yrw4BJJYyJAJMMiqZRWE-6" style="edgeStyle=orthogonalEdgeStyle;rounded=0;orthogonalLoop=1;jettySize=auto;html=1;entryX=0;entryY=0.5;entryDx=0;entryDy=0;flowAnimation=1;dashed=1;" edge="1" parent="1" source="yrw4BJJYyJAJMMiqZRWE-3" target="Zp9bopaUCP8zhnC8v-5o-15">
          <mxGeometry relative="1" as="geometry" />
        </mxCell>
        <mxCell id="yrw4BJJYyJAJMMiqZRWE-3" value="" style="shape=image;verticalLabelPosition=bottom;labelBackgroundColor=default;verticalAlign=top;aspect=fixed;imageAspect=0;image=https://static-00.iconduck.com/assets.00/trivy-icon-1248x2048-jvb9x51r.png;" vertex="1" parent="1">
          <mxGeometry x="453.02" y="31" width="52.08" height="85.5" as="geometry" />
        </mxCell>
      </root>
    </mxGraphModel>
  </diagram>
</mxfile>
